<mxfile host="app.diagrams.net" modified="2024-07-22T08:29:51.489Z" agent="Mozilla/5.0 (X11; Linux x86_64) AppleWebKit/537.36 (KHTML, like Gecko) Chrome/115.0.0.0 Safari/537.36" version="24.5.4" etag="KpstkHlKBkqJaU3HfF2j" type="github">
  <diagram name="第 1 页" id="d3Hs9iENF1SQIHkBWKWi">
    <mxGraphModel>
      <root>
        <mxCell id="0" />
        <mxCell id="1" parent="0" />
      </root>
    </mxGraphModel>
  </diagram>
</mxfile>
